HIERARCHY
ROOT joint_Root
{
	OFFSET 0.0 0.0 0.0
	CHANNELS 6 Xposition Yposition Zposition Zrotation Xrotation Yrotation 
	JOINT Hips
	{
		OFFSET -17.1583 93.1646 452.98
		CHANNELS 6 Xposition Yposition Zposition Zrotation Xrotation Yrotation 
		JOINT Spine
		{
			OFFSET 15.7357 0.0 0.0
			CHANNELS 6 Xposition Yposition Zposition Zrotation Xrotation Yrotation 
			JOINT Chest
			{
				OFFSET 8.98455 -0.406207 0.0
				CHANNELS 6 Xposition Yposition Zposition Zrotation Xrotation Yrotation 
				JOINT Neck
				{
					OFFSET 16.3773 0.0 0.0
					CHANNELS 6 Xposition Yposition Zposition Zrotation Xrotation Yrotation 
					JOINT Head
					{
						OFFSET 6.45672 0.0 0.0
						CHANNELS 6 Xposition Yposition Zposition Zrotation Xrotation Yrotation 
						End Site
						{
							OFFSET 0.0 0.0 0.0
						}
					}
				}
				JOINT Shoulder_L
				{
					OFFSET 12.9942 -0.242716 4.98039
					CHANNELS 6 Xposition Yposition Zposition Zrotation Xrotation Yrotation 
					JOINT UpperArm_L
					{
						OFFSET 5.34809 0.0 0.0
						CHANNELS 6 Xposition Yposition Zposition Zrotation Xrotation Yrotation 
						JOINT LowerArm_L
						{
							OFFSET 24.3286 1.87007e-05 0.0
							CHANNELS 6 Xposition Yposition Zposition Zrotation Xrotation Yrotation 
							JOINT Hand_L
							{
								OFFSET 22.2916 0.0 0.0
								CHANNELS 6 Xposition Yposition Zposition Zrotation Xrotation Yrotation 
								End Site
								{
									OFFSET 0.0 0.0 0.0
								}
							}
						}
					}
				}
				JOINT Shoulder_R
				{
					OFFSET 12.9945 -0.242716 -4.98039
					CHANNELS 6 Xposition Yposition Zposition Zrotation Xrotation Yrotation 
					JOINT UpperArm_R
					{
						OFFSET -5.34813 0.0 0.0
						CHANNELS 6 Xposition Yposition Zposition Zrotation Xrotation Yrotation 
						JOINT LowerArm_R
						{
							OFFSET -24.3289 0.000322201 0.0
							CHANNELS 6 Xposition Yposition Zposition Zrotation Xrotation Yrotation 
							JOINT Hand_R
							{
								OFFSET -22.2915 -0.000108084 0.0
								CHANNELS 6 Xposition Yposition Zposition Zrotation Xrotation Yrotation 
								End Site
								{
									OFFSET 0.0 0.0 0.0
								}
							}
						}
					}
				}
			}
		}
		JOINT UpperLeg_L
		{
			OFFSET -2.19248 -6.46944 0.0
			CHANNELS 6 Xposition Yposition Zposition Zrotation Xrotation Yrotation 
			JOINT LowerLeg_L
			{
				OFFSET 39.0811 0.0 -1.23785e-05
				CHANNELS 6 Xposition Yposition Zposition Zrotation Xrotation Yrotation 
				JOINT Foot_L
				{
					OFFSET 40.9854 0.0 -1.26872e-05
					CHANNELS 6 Xposition Yposition Zposition Zrotation Xrotation Yrotation 
					JOINT Toes_L
					{
						OFFSET 11.7543 0.0 0.0
						CHANNELS 6 Xposition Yposition Zposition Zrotation Xrotation Yrotation 
						End Site
						{
							OFFSET 0.0 0.0 0.0
						}
					}
				}
			}
		}
		JOINT UpperLeg_R
		{
			OFFSET -2.19251 6.46944 0.0
			CHANNELS 6 Xposition Yposition Zposition Zrotation Xrotation Yrotation 
			JOINT LowerLeg_R
			{
				OFFSET -39.0811 -0.00228153 -0.0401928
				CHANNELS 6 Xposition Yposition Zposition Zrotation Xrotation Yrotation 
				JOINT Foot_R
				{
					OFFSET -40.9854 0.0 0.0
					CHANNELS 6 Xposition Yposition Zposition Zrotation Xrotation Yrotation 
					JOINT Toes_R
					{
						OFFSET -11.7543 0.0 0.0
						CHANNELS 6 Xposition Yposition Zposition Zrotation Xrotation Yrotation 
						End Site
						{
							OFFSET 0.0 0.0 0.0
						}
					}
				}
			}
		}
	}
}
MOTION
Frames:	4
Frame Time:	0.0333333
0.000000 0.000000 0.000000 0.000000 0.000000 -0.000000 -1.606420 91.323000 -53.625700 85.704200 1.077050 5.633690 15.735700 0.000005 -0.000001 86.212000 85.496800 -83.921500 8.984550 -0.406207 -0.000000 1.239380 -0.725104 4.584990 16.377300 -0.000001 -0.000001 6.398950 3.453800 -3.116830 6.456720 -0.000001 -0.000000 -3.446140 3.607210 -0.893180 12.994200 -0.242716 4.980390 -92.985700 8.273120 -70.075800 5.348090 -0.000007 -0.000001 -69.961600 -19.269600 5.908900 24.328600 0.000019 0.000005 21.443300 33.103300 -35.721800 22.291600 -0.000001 0.000005 44.953900 4.429970 17.742900 12.994500 -0.242716 -4.980390 87.879300 5.271030 -68.046100 -5.348130 -0.000001 -0.000004 -71.906400 9.786170 -3.926260 -24.328900 0.000322 -0.000009 -3.623630 -6.543160 -29.056700 -22.291500 -0.000108 -0.000004 52.107600 5.571160 -9.747970 -2.192480 -6.469440 -0.000000 -172.189000 -0.609178 -16.110500 39.081100 -0.000007 -0.000012 0.096398 -0.038179 68.390700 40.985400 -0.000006 -0.000013 -10.855800 7.668790 -46.358700 11.754300 -0.000000 0.000003 0.002482 0.087486 -13.028800 -2.192510 6.469440 -0.000001 -169.964000 1.155090 174.922000 -39.081100 -0.002282 -0.040193 0.010434 -0.013969 27.025700 -40.985400 0.000008 0.000006 0.071276 -4.354800 -72.263900 -11.754300 -0.000006 -0.000006 -0.009762 0.269518 -5.624090
0.000000 0.000000 0.000000 0.000000 0.000000 -0.000000 -1.263190 92.004100 -50.332100 87.447600 0.401271 5.045990 15.735700 0.000005 -0.000001 90.557700 85.632300 -88.978600 8.984550 -0.406207 -0.000000 0.971125 -0.008590 3.155780 16.377300 -0.000001 -0.000001 6.693410 3.351840 -2.938730 6.456720 -0.000001 -0.000000 -3.276700 3.224050 -0.511742 12.994200 -0.242716 4.980390 -92.932500 7.986920 -69.762600 5.348090 -0.000007 -0.000001 -68.010800 -20.840500 6.824240 24.328600 0.000019 0.000005 22.824300 33.007600 -37.688600 22.291600 -0.000001 0.000005 44.787200 4.424800 17.826000 12.994500 -0.242716 -4.980390 88.111400 4.736180 -68.230300 -5.348130 -0.000001 -0.000004 -73.570500 10.660300 -4.782630 -24.328900 0.000322 -0.000009 -3.771700 -5.560740 -34.223100 -22.291500 -0.000108 -0.000004 52.472900 5.565670 -9.469410 -2.192480 -6.469440 -0.000000 -175.124000 -0.285183 -20.364800 39.081100 -0.000007 -0.000012 0.021062 -0.009484 65.746900 40.985400 -0.000006 -0.000013 -7.446010 1.716740 -52.997900 11.754300 -0.000000 0.000003 0.002292 0.107285 -12.226100 -2.192510 6.469440 -0.000001 -172.299000 2.074180 178.619000 -39.081100 -0.002282 -0.040193 0.005200 -0.004368 23.341100 -40.985400 0.000008 0.000006 -0.123483 -2.390350 -71.874400 -11.754300 -0.000006 -0.000006 -0.009151 0.264849 -5.814950
0.000000 0.000000 0.000000 0.000000 0.000000 -0.000000 -0.902789 92.507300 -47.195800 88.862700 -0.585845 4.090230 15.735700 0.000005 -0.000001 95.646800 85.822500 -94.620900 8.984550 -0.406207 -0.000000 0.542624 0.757182 2.046700 16.377300 -0.000001 -0.000001 6.872620 3.315160 -3.020200 6.456720 -0.000001 -0.000000 -3.353430 2.920210 -0.277329 12.994200 -0.242716 4.980390 -92.927600 7.857100 -69.488900 5.348090 -0.000007 -0.000001 -65.939200 -22.586200 7.627480 24.328600 0.000019 0.000005 23.846200 32.356800 -39.553400 22.291600 -0.000001 0.000005 44.673200 4.399030 18.238800 12.994500 -0.242716 -4.980390 88.282800 4.364930 -68.500400 -5.348130 -0.000001 -0.000004 -74.718800 11.599100 -5.270190 -24.328900 0.000322 -0.000009 -4.039310 -4.842900 -39.907000 -22.291500 -0.000108 -0.000004 52.716900 5.560000 -9.188210 -2.192480 -6.469440 -0.000000 -177.419000 0.005034 -23.501400 39.081100 -0.000007 -0.000012 -0.017736 0.010560 59.242300 40.985400 -0.000006 -0.000013 -5.289040 -2.890260 -56.901100 11.754300 -0.000000 0.000003 0.002388 0.100568 -12.498500 -2.192510 6.469440 -0.000001 -174.583000 3.707540 -178.237000 -39.081100 -0.002282 -0.040193 0.000620 0.007569 19.642500 -40.985400 0.000008 0.000006 -0.364065 0.585152 -71.215100 -11.754300 -0.000006 -0.000006 -0.008375 0.258736 -6.064770
0.000000 0.000000 0.000000 0.000000 0.000000 -0.000000 -0.710435 92.741800 -44.090100 89.462900 -1.502280 3.411010 15.735700 0.000005 -0.000001 99.445000 85.880800 -98.653900 8.984550 -0.406207 -0.000000 0.352529 1.300390 1.577230 16.377300 -0.000001 -0.000001 6.909550 3.432980 -3.282830 6.456720 -0.000001 -0.000000 -3.630860 2.764490 -0.221043 12.994200 -0.242716 4.980390 -92.948400 7.813000 -69.249200 5.348090 -0.000007 -0.000001 -63.965100 -24.336400 8.394970 24.328600 0.000019 0.000005 24.858500 31.643000 -41.447900 22.291600 -0.000001 0.000005 44.765200 4.386840 18.432700 12.994500 -0.242716 -4.980390 88.364200 4.224290 -68.808800 -5.348130 -0.000001 -0.000004 -75.183700 12.558000 -5.827530 -24.328900 0.000322 -0.000009 -3.503380 -3.521000 -44.908200 -22.291500 -0.000108 -0.000004 52.769000 5.560420 -9.207850 -2.192480 -6.469440 -0.000000 -178.351000 0.318954 -24.739900 39.081100 -0.000007 -0.000012 -0.018509 0.015942 49.268600 40.985400 -0.000006 -0.000013 -4.588860 -4.821820 -58.616900 11.754300 -0.000000 0.000003 0.002198 0.112386 -12.019300 -2.192510 6.469440 -0.000001 -176.259000 6.541590 -175.334000 -39.081100 -0.002282 -0.040193 -0.002421 0.019074 16.769600 -40.985400 0.000008 0.000006 -0.171724 4.279320 -70.480800 -11.754300 -0.000006 -0.000006 -0.006448 0.242522 -6.726700
